<svg width="17" height="17" viewBox="0 0 17 17" fill="none" xmlns="http://www.w3.org/2000/svg">
<path d="M8.04912 1.41667C10.9922 1.41667 9.91699 5.66667 9.91699 5.66667C9.91699 5.66667 14.167 4.49792 14.167 7.40704V15.5833H2.83366V1.41667H8.04912ZM8.6342 0H1.41699V17H15.5837V6.80992C15.5837 5.11629 10.8747 0 8.6342 0ZM12.042 9.20833H10.1805V11.8193H10.823V10.7766H11.8784V10.2581H10.823V9.76367H12.042V9.20833ZM8.57116 9.20833H7.43853V11.8193H8.57116C8.95153 11.8193 9.25187 11.691 9.46508 11.4403C9.8582 10.9742 9.88087 9.99954 9.42116 9.53346C9.21008 9.32096 8.91683 9.20833 8.57116 9.20833ZM8.08099 9.76296H8.43233C8.76737 9.76296 9.00041 9.8855 9.08045 10.2191C9.12578 10.4082 9.13499 10.7001 9.06558 10.8906C8.97491 11.1392 8.7957 11.2646 8.53149 11.2646H8.08028V9.76296H8.08099ZM6.14016 9.20833H4.95866V11.8193H5.60112V10.9147H6.14016C6.57862 10.9147 6.89383 10.7185 7.00716 10.3742C7.07445 10.1681 7.07445 9.95137 7.00716 9.74737C6.89383 9.40454 6.57791 9.20833 6.14016 9.20833ZM5.60112 9.72683H5.98787C6.15433 9.72683 6.31866 9.74667 6.39587 9.88833C6.44333 9.97546 6.44333 10.1476 6.39587 10.2347C6.31866 10.3757 6.15433 10.3955 5.98787 10.3955H5.60112V9.72683Z" fill="#FEB541"/>
</svg>
