<svg width="30" height="30" viewBox="0 0 30 30" fill="none" xmlns="http://www.w3.org/2000/svg">
<g clip-path="url(#clip0_31_266)">
<path d="M23.2141 22.5324L22.3709 25.4114C22.2937 25.679 22.1614 25.9275 21.9826 26.1411C21.8038 26.3546 21.5824 26.5284 21.3325 26.6514C21.0827 26.7744 20.8099 26.8439 20.5316 26.8554C20.2533 26.8669 19.9757 26.8201 19.7166 26.7181C16.8575 25.5323 14.3163 23.6924 12.2974 21.3462C10.4102 19.1936 9.02001 16.652 8.22568 13.9016C7.33704 10.923 7.16254 7.77692 7.71632 4.71827C7.77006 4.44586 7.87994 4.18763 8.03895 3.96001C8.19796 3.73239 8.40263 3.54038 8.63991 3.39619C8.8772 3.25201 9.14191 3.15881 9.41719 3.12253C9.69247 3.08625 9.97229 3.10769 10.2388 3.18548L13.1179 4.02869C13.585 4.16051 13.9882 4.45768 14.2524 4.8648C14.5166 5.27193 14.6237 5.76122 14.5538 6.2415C14.4055 7.19845 14.3659 8.16911 14.4358 9.13497C14.4643 9.51628 14.3829 9.89777 14.2013 10.2342C14.0196 10.5707 13.7453 10.8481 13.4109 11.0334L11.8351 11.8953C12.4976 14.698 13.9043 17.27 15.9068 19.3398L17.4826 18.478C17.8191 18.2964 18.2006 18.215 18.5819 18.2436C18.9632 18.2722 19.3283 18.4094 19.634 18.6392C20.4095 19.2191 21.2482 19.7094 22.134 20.1008C22.5809 20.3031 22.9379 20.6626 23.137 21.1109C23.3362 21.5592 23.3636 22.0651 23.2141 22.5324Z" stroke="white" stroke-width="2" stroke-linecap="round" stroke-linejoin="round"/>
</g>
<defs>
<clipPath id="clip0_31_266">
<rect width="24" height="24" fill="white" transform="translate(6.85645 0.11084) rotate(16.3241)"/>
</clipPath>
</defs>
</svg>
